
<svg xmlns="http://www.w3.org/2000/svg" viewBox="0 0 512 512">
  <path fill="#1e5631" d="M256 0C114.6 0 0 114.6 0 256s114.6 256 256 256s256-114.6 256-256S397.4 0 256 0z"/>
  <path fill="#d6c397" d="M256 64c-106 0-192 86-192 192s86 192 192 192s192-86 192-192S362 64 256 64z"/>
  <path fill="#1e5631" d="M256 112c-79.5 0-144 64.5-144 144s64.5 144 144 144s144-64.5 144-144S335.5 112 256 112z"/>
  <path fill="#fff" d="M368 224H144c-8.8 0-16 7.2-16 16s7.2 16 16 16h224c8.8 0 16-7.2 16-16S376.8 224 368 224z"/>
  <path fill="#b80000" d="M304 208c13.3 0 24-10.7 24-24s-10.7-24-24-24s-24 10.7-24 24S290.7 208 304 208z"/>
</svg>
